<?xml version="1.0" encoding="utf-8"?>
<!-- Generator: Adobe Illustrator 26.0.1, SVG Export Plug-In . SVG Version: 6.00 Build 0)  -->
<svg version="1.1" id="Layer_1" xmlns="http://www.w3.org/2000/svg" xmlns:xlink="http://www.w3.org/1999/xlink" x="0px" y="0px"
	 viewBox="0 0 1080 1080" style="enable-background:new 0 0 1080 1080;" xml:space="preserve">
<style type="text/css">
	.st0{fill:#2596F2;}
	.st1{opacity:0.5;fill:#2596F2;}
</style>
<g>
	<path class="st0" d="M557.12,799.61c-4.2-1.95-6.94-2.97-9.45-4.41c-51.89-29.82-103.7-59.79-155.71-89.4
		c-5.86-3.33-7.57-7.21-7.56-13.56c0.15-106.86,0.01-213.72,0.43-320.57c0.02-4.5,3.64-10.91,7.49-13.18
		c46.68-27.48,98.23-54.49,145.41-81.09c3.6-2.03,1.25-1.77,4.94,0.31c46.84,26.44,97.91,58.1,144.64,84.73
		c6,3.42,8.29,2.76,8.26,9.75c-0.28,53.43-0.34,106.86,0.04,160.28c0.05,7.72-3.03,11.39-9.23,14.92
		c-39.85,22.65-79.38,45.86-119.33,68.33c-7.72,4.35-10.2,9.29-10.13,17.96c0.41,50.77,0.2,101.55,0.2,152.33
		C557.12,790.06,557.12,794.12,557.12,799.61z M558.5,324.16c-0.68,2.97-1.27,4.34-1.27,5.71c-0.07,35.2-0.3,70.39,0.24,105.58
		c0.06,3.75,3.88,8.82,7.38,10.92c23.01,13.85,46.38,27.09,69.68,40.46c8.07,4.63,16.26,9.07,24.31,13.55
		c1.07-1.61,1.78-2.19,1.78-2.77c0.15-36.32,0.44-72.65,0.01-108.97c-0.04-3.38-3.98-7.85-7.3-9.87
		c-17.78-10.8-35.92-21.01-53.97-31.36C586.07,339.79,572.72,332.25,558.5,324.16z M522.66,581.45c0-39.81,0.16-76.9-0.31-113.97
		c-0.04-3.05-3.78-7.08-6.84-8.89c-23.46-13.91-47.18-27.39-70.83-40.99c-7.76-4.46-15.56-8.87-23.67-13.5
		c-1,2.33-1.77,3.3-1.77,4.26c-0.12,36-0.34,72,0.05,108c0.03,3.14,3.53,7.31,6.55,9.18c13.85,8.56,28.1,16.48,42.23,24.6
		C485.4,560.12,502.75,570.04,522.66,581.45z M521.27,739.5c0.7-2.42,1.26-3.44,1.26-4.47c0.08-35.54,0.38-71.08-0.22-106.61
		c-0.07-3.95-4.51-9.2-8.33-11.48c-28.25-16.83-56.84-33.08-85.37-49.44c-2.47-1.42-5.23-2.33-8.37-3.71
		c-0.54,2.37-1.14,3.78-1.14,5.18c-0.07,35.16-0.31,70.33,0.24,105.48c0.06,3.72,4,8.73,7.52,10.84
		c23.65,14.2,47.66,27.81,71.6,41.54C505.85,731.1,513.38,735.14,521.27,739.5z M557.84,581.09c28.78-16.58,56-32.26,85.39-49.19
		c-29.49-16.93-56.72-32.56-85.39-49.03C557.84,516.44,557.84,547.59,557.84,581.09z M436.4,372.76
		c29.47,16.89,56.94,32.63,85.31,48.89c0-33.68,0-64.8,0-97.9C493,340.25,465.9,355.82,436.4,372.76z"/>
	<g>
		<path class="st0" d="M580.84,755.58c0.85,0.92,1.24,2.1,1.2,3.26c-0.05,1.16-0.54,2.3-1.46,3.15c-1.84,1.7-4.71,1.58-6.41-0.26
			c-0.85-0.92-1.24-2.1-1.2-3.26c0.05-1.16,0.54-2.3,1.46-3.15C576.27,753.62,579.14,753.74,580.84,755.58z"/>
		<path class="st0" d="M644.45,726.93c-0.01,0.12-0.03,0.23-0.03,0.35c-0.04,1.02,0.16,2.05,0.59,3l-14.04,12.93l-14.04,12.93
			c-1.02-0.57-2.16-0.84-3.29-0.83l-15.13-44.13c0.64-0.34,1.25-0.76,1.79-1.26c0.55-0.51,1.01-1.07,1.41-1.69L644.45,726.93z"/>
		<path class="st0" d="M585.71,761.38l21.59,1.99c0.25,1.11,0.78,2.14,1.57,2.99c0.83,0.9,1.86,1.51,2.96,1.84l0.45,17.28l0.2,7.5
			c-0.63,0.25-1.23,0.6-1.78,1.05l-27.02-29.33C584.61,763.74,585.3,762.62,585.71,761.38z"/>
		<path class="st1" d="M594.09,712.2c0.14,0.01,0.28,0,0.42,0l15.24,44.44c-0.17,0.13-0.33,0.26-0.49,0.41
			c-0.69,0.63-1.22,1.39-1.58,2.23l-21.63-1.99c-0.26-1.66-1.01-3.22-2.18-4.48c-1.11-1.21-2.52-2.05-4.07-2.47l12.51-38.39
			C592.89,712.08,593.48,712.17,594.09,712.2z"/>
		<path class="st0" d="M620.26,762.59c0.12-1.16-0.06-2.35-0.55-3.43l28.07-25.86c1.04,0.58,2.21,0.86,3.37,0.83l16.24,45.58
			c-0.6,0.33-1.18,0.73-1.7,1.21c-0.52,0.48-0.97,1.02-1.35,1.59L620.26,762.59z"/>
		<path class="st0" d="M643.52,697.85c1.29,1.4,2.96,2.3,4.79,2.64l0.02,0.74l0.47,20.12c-0.82,0.29-1.59,0.74-2.26,1.36
			c-0.16,0.15-0.31,0.3-0.45,0.46l-14.65-6.41l-28.39-12.42c0.01-0.14,0.03-0.28,0.04-0.42c0.02-0.59-0.01-1.17-0.1-1.74l38.36-8.86
			C641.59,695,642.34,696.56,643.52,697.85z"/>
		<path class="st1" d="M681.61,726.44c-0.8,0.74-1.44,1.61-1.91,2.56l-22.25-2.72c-0.23-1.15-0.76-2.26-1.61-3.19
			c-0.83-0.9-1.85-1.51-2.94-1.83l-0.48-20.73l-0.01-0.28c1.22-0.37,2.35-1.01,3.32-1.9c0,0,0.01-0.01,0.01-0.01L681.61,726.44
			C681.62,726.43,681.61,726.43,681.61,726.44z"/>
		<path class="st0" d="M671.92,778.65c-0.18-0.01-0.35,0-0.53,0l-16.36-45.89c0.15-0.11,0.29-0.23,0.43-0.36
			c0.65-0.6,1.15-1.29,1.5-2.05l21.87,2.68c0.05,2.09,0.84,4.07,2.27,5.62c1.08,1.17,2.42,1.99,3.91,2.43l-11.48,37.79
			C673.01,778.75,672.47,778.67,671.92,778.65z"/>
		<path class="st1" d="M620.24,794.72c-1.01-1.1-2.3-1.8-3.67-2.09l-0.64-24.53c0.81-0.29,1.58-0.74,2.25-1.36
			c0.14-0.13,0.27-0.26,0.39-0.4l44.4,20.06c-0.02,0.18-0.04,0.35-0.05,0.53c-0.02,0.57,0.01,1.14,0.09,1.69l-41.13,9.15
			C621.6,796.64,621.05,795.6,620.24,794.72z"/>
		<path class="st1" d="M598.97,703.74c-0.05,1.16-0.54,2.3-1.46,3.15c-1.84,1.7-4.71,1.58-6.41-0.26c-0.85-0.92-1.24-2.1-1.2-3.26
			s0.54-2.3,1.46-3.15c1.84-1.7,4.71-1.58,6.41,0.26C598.63,701.41,599.02,702.58,598.97,703.74z"/>
		<path class="st0" d="M652.95,695.32c-1.84,1.7-4.71,1.58-6.41-0.26c-0.85-0.92-1.24-2.1-1.2-3.26c0.05-1.16,0.54-2.3,1.46-3.15
			c1.84-1.7,4.71-1.58,6.41,0.26c0.85,0.92,1.24,2.1,1.2,3.26S653.87,694.48,652.95,695.32z"/>
		<path class="st1" d="M684.13,735.87c-0.85-0.92-1.24-2.1-1.2-3.26c0.05-1.16,0.54-2.3,1.46-3.15c1.84-1.7,4.71-1.58,6.41,0.26
			c0.85,0.92,1.24,2.1,1.2,3.26c-0.05,1.16-0.54,2.3-1.46,3.15C688.7,737.83,685.83,737.71,684.13,735.87z"/>
		<path class="st0" d="M667.03,787.1c0.05-1.16,0.54-2.3,1.46-3.15c1.84-1.7,4.71-1.58,6.41,0.26c0.85,0.92,1.24,2.1,1.2,3.26
			s-0.54,2.3-1.46,3.15c-1.84,1.7-4.71,1.58-6.41-0.26C667.38,789.44,666.98,788.26,667.03,787.1z"/>
		<path class="st1" d="M612.02,796.13c1.84-1.7,4.71-1.58,6.41,0.26c0.85,0.92,1.24,2.1,1.2,3.26c-0.05,1.16-0.54,2.3-1.46,3.15
			c-1.84,1.7-4.71,1.58-6.41-0.26c-0.85-0.92-1.24-2.1-1.2-3.26C610.6,798.12,611.09,796.98,612.02,796.13z"/>
	</g>
</g>
</svg>
